<?xml version="1.0" encoding="UTF-8"?><svg version="1.1" class="svganime" xmlns="http://www.w3.org/2000/svg" viewBox="0 0 256 256"><defs><style>.cls-1{fill:#fff;}</style></defs><g><path d="M256,123v10c-.32,1.45-.7,2.88-.94,4.34-1.41,8.34-2.19,16.85-4.28,25.02-12.13,47.34-54.96,85.09-103.52,91.65-4.76,.64-9.51,1.33-14.26,1.99h-10c-1.45-.32-2.88-.7-4.34-.94-8.51-1.44-17.2-2.18-25.51-4.37C45.91,238.2,8.52,195.57,1.99,147.26c-.64-4.76-1.33-9.51-1.99-14.26,0-3.33,0-6.67,0-10,.33-1.61,.7-3.22,.98-4.84,1.42-8.34,2.18-16.86,4.34-25.01C17.81,45.91,60.43,8.52,108.74,1.99c4.76-.64,9.51-1.33,14.26-1.99,3.33,0,6.67,0,10,0,1.45,.32,2.88,.7,4.34,.94,8.34,1.41,16.85,2.19,25.02,4.28,47.33,12.13,85.09,54.96,91.65,103.52,.64,4.76,1.33,9.51,1.99,14.26Zm-97.63-15.73c1.96-24-9.05-39.56-29.25-40.31-8.98-.33-16.78,2.9-23.03,9.12-9.01,8.97-11.06,20.07-8.05,32.23-4.56,.49-8.77,.48-12.74,1.45-12.28,2.99-21.62,13.35-23.29,25.28-1.76,12.53,4.46,25.95,14.68,31.64,12.12,6.75,25.59,5.74,36.07-2.49,1.59-1.25,3.75-1.78,5.65-2.64,.32,.38,.63,.76,.95,1.14-2.2,6.92-4.37,13.84-6.61,20.75-1.27,3.9,.05,5.71,4.16,5.68,6.66-.05,13.32,0,19.99-.01,7.32-.01,7.91-.85,5.67-7.84-2-6.24-3.96-12.49-5.94-18.73,.39-.36,.79-.72,1.18-1.08,1.9,.96,4.04,1.62,5.67,2.92,14.29,11.37,35.14,8.12,45.63-7.2,10.15-14.83,5.27-35.96-10.92-44.24-5.83-2.98-12.81-3.73-19.8-5.65Z"/><path class="cls-1" d="M123,0c-4.75,.66-9.51,1.35-14.26,1.99C60.43,8.52,17.81,45.91,5.31,93.15c-2.16,8.15-2.91,16.67-4.34,25.01C.7,119.78,.33,121.39,0,123,0,82,0,41,0,0,41,0,82,0,123,0Z"/><path class="cls-1" d="M256,123c-.66-4.75-1.35-9.5-1.99-14.26-6.56-48.55-44.32-91.39-91.65-103.52-8.17-2.09-16.67-2.87-25.02-4.28C135.88,.7,134.45,.32,133,0c41,0,82,0,123,0V123Z"/><path class="cls-1" d="M0,133c.66,4.75,1.35,9.5,1.99,14.26,6.53,48.3,43.92,90.94,91.16,103.42,8.31,2.2,17,2.94,25.51,4.37,1.46,.25,2.9,.63,4.34,.94H0C0,215,0,174,0,133Z"/><path class="cls-1" d="M133,256c4.75-.66,9.51-1.35,14.26-1.99,48.55-6.56,91.39-44.32,103.52-91.65,2.09-8.17,2.87-16.67,4.28-25.02,.25-1.46,.63-2.89,.94-4.34v123h-123Z"/><path class="cls-1" d="M158.37,107.27c7,1.92,13.97,2.67,19.8,5.65,16.2,8.28,21.07,29.42,10.92,44.24-10.48,15.32-31.34,18.57-45.63,7.2-1.63-1.3-3.77-1.96-5.67-2.92-.39,.36-.79,.72-1.18,1.08,1.98,6.24,3.94,12.49,5.94,18.73,2.24,6.99,1.66,7.82-5.67,7.84-6.66,.01-13.33-.04-19.99,.01-4.11,.03-5.42-1.78-4.16-5.68,2.24-6.9,4.41-13.83,6.61-20.75-.32-.38-.63-.76-.95-1.14-1.9,.86-4.06,1.39-5.65,2.64-10.48,8.23-23.95,9.24-36.07,2.49-10.21-5.69-16.44-19.11-14.68-31.64,1.67-11.93,11.02-22.29,23.29-25.28,3.97-.97,8.17-.96,12.74-1.45-3.01-12.17-.96-23.27,8.05-32.23,6.25-6.22,14.05-9.45,23.03-9.12,20.2,.75,31.21,16.31,29.25,40.31Z"/></g></svg>